<?xml version="1.0" encoding="utf-8"?>
<!-- Generator: Adobe Illustrator 16.0.0, SVG Export Plug-In . SVG Version: 6.00 Build 0)  -->
<!DOCTYPE svg PUBLIC "-//W3C//DTD SVG 1.1//EN" "http://www.w3.org/Graphics/SVG/1.1/DTD/svg11.dtd">
<svg version="1.1" id="Layer_1" xmlns="http://www.w3.org/2000/svg" xmlns:xlink="http://www.w3.org/1999/xlink" x="0px" y="0px"
	 width="100px" height="100px" viewBox="0 0 100 100" enable-background="new 0 0 100 100" xml:space="preserve">
<g>
	<path fill-rule="evenodd" clip-rule="evenodd" d="M98.849,61.227c-1.186-0.037-2.372-0.072-3.558-0.102
		c-7.762-0.191-15.529-0.201-23.294-0.232c-2.762-0.01-5.535,0.035-8.286,0.266c-4.27,0.357-8.497,1.041-12.59,2.389
		c-0.22,0.07-0.612,0.041-0.74-0.104c-0.797-0.904-1.54-1.852-2.301-2.785c0.005,0.027,0.318-0.164,0.634-0.352
		c7.647-4.502,13.838-10.41,17.595-18.566c2.975-6.461,3.443-12.945-0.246-19.373c-2.888-5.033-6.616-9.16-12.074-11.441
		c-3.873-1.617-7.934-1.871-12.071-1.486c-5.526,0.514-10.323,2.582-14.185,6.623c-3.973,4.16-6.24,9.064-6.308,14.883
		c-0.058,5.047,1.675,9.541,4.283,13.762c2.961,4.789,6.833,8.742,11.217,12.227c1.305,1.037,2.578,2.111,3.865,3.17
		c-0.021,0.098-0.044,0.197-0.066,0.295c-6.459,1.639-13.103,1.672-19.704,1.996c-6.621,0.326-13.248,0.279-19.872-0.344v3.863
		c1.645,0.107,3.25,0.305,4.854,0.299c5.9-0.016,11.802-0.008,17.697-0.18c6.593-0.191,13.135-0.84,19.397-3.143
		c0.26-0.096,0.681-0.143,0.859,0c0.965,0.762,1.877,1.592,2.879,2.461c-0.38,0.287-0.661,0.471-0.908,0.691
		c-1.62,1.443-3.369,2.77-4.817,4.367c-2.717,3-4.062,6.527-3.154,10.635c1.801,8.146,11.183,12.232,18.337,7.949
		c3.974-2.381,5.925-5.791,4.393-10.707c-1.296-4.158-3.692-7.625-6.568-10.811c-0.281-0.314-0.567-0.621-0.921-1.006
		c0.298-0.129,0.458-0.207,0.624-0.264c3.348-1.152,6.826-1.635,10.333-1.773c4.53-0.18,9.072-0.328,13.6-0.211
		c6.843,0.174,13.685,0.447,20.526,0.709C98.471,63.697,98.661,62.461,98.849,61.227z M45.4,58.258
		c-0.484,0.273-0.85,0.34-1.337-0.039C38.749,54.082,33.71,49.639,29.956,44c-2.499-3.754-4.412-7.873-5.028-12.406
		c-0.689-5.078,1.254-9.311,4.722-12.9c8.434-9.277,20.35-6.068,23.253-4.756c4.804,2.17,8.233,6.135,10.926,10.664
		c1.886,3.174,2.124,7.482,1.161,10.969c-1.698,6.141-5.338,11.07-9.826,15.438C52.238,53.855,48.956,56.244,45.4,58.258z
		 M57.071,77.551c1.573,3.566,0.917,6.455-1.96,8.139c-0.973,0.57-2.1,0.93-3.203,1.203c-1.043,0.26-2.146,0.283-3.47,0.439
		c-0.973-0.172-2.205-0.238-3.332-0.619c-3.142-1.063-4.692-3.865-3.925-7.377c1.05-4.805,3.987-8.326,8.063-10.943
		c0.22-0.141,0.773-0.096,0.952,0.082C52.909,71.176,55.5,73.982,57.071,77.551z"/>
</g>
</svg>
